<?xml version="1.0" encoding="UTF-8" standalone="no"?>
<svg
   width="32px"
   height="32px"
   viewBox="0 0 32 32"
   version="1.1"
   id="svg491"
   sodipodi:docname="favicon.svg"
   inkscape:version="1.2 (dc2aedaf03, 2022-05-15)"
   xmlns:inkscape="http://www.inkscape.org/namespaces/inkscape"
   xmlns:sodipodi="http://sodipodi.sourceforge.net/DTD/sodipodi-0.dtd"
   xmlns="http://www.w3.org/2000/svg"
   xmlns:svg="http://www.w3.org/2000/svg">
  <defs
     id="defs495" />
  <sodipodi:namedview
     id="namedview493"
     pagecolor="#ffffff"
     bordercolor="#000000"
     borderopacity="0.25"
     inkscape:showpageshadow="2"
     inkscape:pageopacity="0.0"
     inkscape:pagecheckerboard="0"
     inkscape:deskcolor="#d1d1d1"
     showgrid="false"
     inkscape:zoom="10.429825"
     inkscape:cx="14.285954"
     inkscape:cy="8.0538264"
     inkscape:window-width="1920"
     inkscape:window-height="1017"
     inkscape:window-x="-8"
     inkscape:window-y="-8"
     inkscape:window-maximized="1"
     inkscape:current-layer="svg491" />
  <path
     d="m 16,5.0000266 c -0.213922,0 -0.427805,0.03402 -0.632807,0.103559 L 5.025385,8.5508546 C 4.412384,8.7549486 4,9.3267156 4,9.9727126 V 22.890684 c 0,0.688025 0.468737,1.288101 1.13673,1.45508 l 10.378923,2.593739 c 0.159118,0.04006 0.32126,0.06047 0.484347,0.06047 0.162897,0 0.325417,-0.0189 0.484384,-0.06047 L 26.863307,24.345764 C 27.531263,24.179843 28,23.579692 28,22.890684 V 9.9727126 c 0,-0.645997 -0.412384,-1.217877 -1.025386,-1.421858 L 16.632768,5.1035856 C 16.427918,5.0344156 16.213997,5.0000266 16,5.0000266 Z"
     id="path254-7"
     style="fill:#ffffff;stroke:none;stroke-width:0.999999"
     sodipodi:nodetypes="sccssccsccssccs" />
  <path
     d="m 15.999991,6.3952207 c -0.186709,0 -0.373418,0.03024 -0.552529,0.09033 L 6.417354,9.4956037 C 5.882101,9.6736197 5.522025,10.173047 5.522025,10.737104 v 11.279508 c 0,0.600756 0.409281,1.124712 0.992549,1.270489 l 9.062525,2.264768 c 0.139087,0.03402 0.280441,0.05291 0.422892,0.05291 0.14211,0 0.28422,-0.01512 0.422967,-0.05291 l 9.062475,-2.264768 c 0.583295,-0.144756 0.992542,-0.668901 0.992542,-1.270489 V 10.737105 c 0,-0.564057 -0.360189,-1.0634083 -0.895332,-1.2415003 l -9.030085,-3.010053 c -0.178772,-0.06047 -0.365859,-0.09033 -0.552567,-0.090331 z m 0,1.746331 8.731653,2.9094053 v 2.222134 l -8.032403,-2.408049 c -0.458419,-0.137953 -0.940006,-0.137953 -1.398425,0 L 7.26836,13.273091 v -2.222134 z m 0,4.0451893 c 0.140976,0 0.282708,0.0189 0.421228,0.05972 l 8.310425,2.495017 v 6.934111 L 15.999991,23.85853 7.26836,21.675589 v -6.934111 l 8.317243,-2.495017 c 0.134551,-0.04006 0.273638,-0.05972 0.414388,-0.05972 z m -0.680429,1.198904 c -0.0378,-0.0076 -0.07446,-0.0076 -0.11263,0.0033 l -2.909404,0.79302 c -0.102426,0.03024 -0.17537,0.124347 -0.17537,0.233575 v 0.508233 c 0,0.16063 0.152315,0.270236 0.305385,0.233575 l 2.911106,-0.793021 c 0.102425,-0.03024 0.173858,-0.131527 0.173858,-0.240378 v -0.501392 c 0,-0.119811 -0.08504,-0.215055 -0.192756,-0.236976 z m 1.362633,0 c -0.107716,0.02268 -0.194267,0.117166 -0.194267,0.236977 v 0.503093 c 0,0.116031 0.0737,0.211653 0.175748,0.240378 l 2.909404,0.791319 c 0.152693,0.04347 0.305386,-0.07219 0.305386,-0.232063 v -0.509933 c 0,-0.109229 -0.07257,-0.203339 -0.173858,-0.232063 L 16.793502,13.39037 c -0.03817,-0.01134 -0.07483,-0.01512 -0.11074,-0.0076 z m -5.728437,1.192063 c -0.0359,-0.0076 -0.07427,-0.0076 -0.112554,0.0076 l -2.423388,0.661681 c -0.109228,0.03024 -0.18085,0.124347 -0.18085,0.233575 v 0.501392 c 0,0.16063 0.152466,0.27704 0.305272,0.233575 l 2.430221,-0.661682 c 0.102312,-0.03024 0.173934,-0.124346 0.173934,-0.233575 v -0.501432 c 0,-0.119811 -0.08504,-0.216945 -0.192756,-0.238488 z m 10.094245,0 c -0.107716,0.02268 -0.194267,0.118678 -0.194267,0.238489 v 0.501392 c 0,0.109228 0.0737,0.20485 0.17537,0.233575 l 2.430198,0.661681 c 0.152693,0.04346 0.305386,-0.07408 0.305386,-0.233574 v -0.501392 c 0,-0.109229 -0.07408,-0.204095 -0.182551,-0.233575 l -2.423358,-0.661682 c -0.03817,-0.01134 -0.07483,-0.01134 -0.11074,-0.0076 z"
     id="path254"
     style="stroke-width:0.873162" />
</svg>
